<?xml version="1.0" encoding="UTF-8"?>
<svg xmlns="http://www.w3.org/2000/svg" viewBox="0 0 535.31 267.9">
  <style>
    .logo-fill { fill: #000; }
    @media (prefers-color-scheme: dark) {
      .logo-fill { fill: #fff; }
    }
  </style>
  <g>
    <path class="logo-fill" d="M110.07,101.14c-.37,1.55.25,1.6,1.06,2.42,3.22,3.27,9.12,5.7,11.91,10.09l7.49,12.47c14.96-4.35,19.42-16.93,28.56-27.46,14.49-16.71,46.29-39.51,69.35-30.41,23.63,9.33,15.72,51.53-5,58.76-6.54,2.28-16.51,2.32-20.89-3.86-1.05-2.53,6.77-6.14,8.98-8.05,6.65-5.74,18.13-21.86,10.87-29.81-9.18-3.15-28.62,15.6-34.36,22.31-8.14,9.5-16.79,23.74-20.23,35.77-11.42,39.88,12.45,50.18,41.73,25.73,27.23-22.74,36.68-51.41,48.55-83.45,1.47-3.98,2.94-8.04,3.15-12.35,9.31-3.6,26.96,2.75,26.94,14.33-.01,5.62-11.06,26.12-13.85,33.25-2.64,6.75-5.61,14.54-7.51,21.49-4.23,15.47-3.47,24.91,11.29,9.29,19.76-20.91,32.98-53.43,42.93-80.07,10.12-2.48,28.04,3.92,25.62,16.58-5.29,11.81-10.85,23.55-15.33,35.71-2.62,7.11-10.06,26.02-9,32.5.14.89.45,2.48,1.38,2.83,5.98,1.22,18.63-14.87,22.33-19.62,16.37-21.05,20.73-49.78,32.07-73.94.19-2.22.16-1.33-1.05-1.06-11.38,2.57-30.13-3.29-32.75-16.18-.43-2.12-.7-9.77.24-11.3,1.33-2.16,6.45,1.71,8.73,2.33,11.7,3.17,24.59,1.28,36.64,1.54l15.82-39.68c7.79-3.31,24.41,2.42,26.89,10.8s-7.48,19.03-8.54,27.04c1.85-.26,3.52-.99,5.44-1.05,18.09-.58,45.75-1.46,62.23,5.88,4.26,1.9,10.83,4.96,6.66,10.25-17.67-3.73-35.92-1.15-53.7,1.07-10.36,1.29-21.04,3.13-31.16,4.84-7.08,15.41-14.21,30.9-20.23,46.77-5.83,15.36-18.55,46.56-12.47,61.97,1.99,5.04,9.16,7.4,1.91,11.48-9.24,5.19-25.6.91-30.21-9.18l-3.47-17.01c-8.59,13.26-32.62,42.71-50.03,28.51-9.38-7.65-6.43-18.9-5.94-29,.05-1.09.54-2.79-1.03-2.52-8.23,14.7-31.8,45.81-50.94,32.42-6.81-4.77-6.59-10.71-7.06-17.95-.1-1.49.76-2.89-1.49-2.47-16.71,23.95-52.11,57.61-83.89,42.87-25.54-11.85-19.22-48.2-13.13-69.88-6.33.2-3.97,6.33-4.62,10.38-4.88,30.62-27.34,55.61-56.67,65.33-13.37,4.43-40.27,9.11-48.41-6.01-4.91-9.12.57-14.58,3.21-22.69-8.67-.87-19.12-8.34-20.04-17.5-.98-9.77,6.55-33.13,9.77-43.28,9.78-30.82,24.2-59.78,37.26-89.23-2.07-1.94-23.75,12.09-26.89,14.6-5.66,4.52-11.64,9.32-11.11,17.4-14.68.94-23.39-22.27-14.44-32.94C12.6,21.48,43.36,9.44,57.07,5.63c28.03-7.78,76.41-12.06,92.17,18.83,15.41,30.2-13.81,63.66-39.17,76.69ZM40.08,173.13c19.13-14.26,42.1-22.13,62.49-33.99,2.35-10.94-1.19-24.26-14.16-24.63-8.91-.25-18.74,8.42-23.85-2.37-8.21-17.33,3.68-14.69,15.19-19.83,17.64-7.88,49.67-32.78,50.37-53.64.13-3.76,0-6.71-2.2-9.89-9.83-14.16-47.83-5.81-61.85-.64-.73,3.1,3.16,1.69,5.72,2.76,5.03,2.1,15.45,9.11,14.09,15.49-.34,1.59-4.75,6.8-5.98,9.06-15.08,27.71-40.58,83.25-40.65,114.2,0,1.21.84,2.26.84,3.47ZM99.06,154.14c-1.1-.84-22.42,9.64-25.36,11.13-8.36,4.24-31.13,16.12-34.71,24.28-6.13,13.97,15.1,7.65,21.75,4.76,17.36-7.54,31.02-22.93,38.32-40.17Z"/>
    <path class="logo-fill" d="M496.06,190.14c.04,1.7.56,2.16-1.41,1.92-5.06-.63-8.88-1.16-14.13-.97-76.9,2.81-155.24,42.25-229.24,61.76-76.45,20.15-169.34,29.73-227.21-35.22.78-1.49,2.41.22,3.29.71,50.67,28.2,108.51,23.18,163.89,13.48,73.19-12.83,144.46-36.56,218.46-45.54,28.65-3.48,58.68-5.95,86.35,3.87Z"/>
    <path class="logo-fill" d="M438.07,150.15l.49,1.99c25.85-2.08,55.75-2.36,78.8,11.19,33.56,19.74,15.59,56.56-17.3,60.79,15.71-14.67,25.56-31.27,2.67-45.16-19.96-12.12-50.73-11.8-72.88-6.54-5.31,1.26-18.28,7.07-22.2,6.69-8.17-.79-14.53-14.78-10.65-21.54l71.05-69.95c-10.02-2.98-23.22,2.95-32.48,2.57-11.54-.47-11.75-17.8-4.59-23.64,3.34-2.72,11.87.42,16.53.61,13.1.54,27.62-2.34,41.08-1.08,13.56,1.27,14.93,14.72,8.3,24.37-17.1,18.91-35.45,36.52-52.81,55.19-1.69,1.81-3.45,4.06-6.02,4.5Z"/>
  </g>
</svg>